<svg aria-hidden="true" style="position:absolute;width:0;height:0" xmlns="http://www.w3.org/2000/svg" overflow="hidden">
  <defs>
    <symbol id="copyright_icon" viewBox="0 0 32 32"><path fill="#545454" d="M13.44 14.48c.067-.44.213-.827.4-1.16s.453-.613.787-.827c.32-.2.72-.293 1.213-.307.307.013.587.067.84.173.267.12.507.28.693.48s.333.44.453.707.173.56.187.853H20.4c-.027-.627-.147-1.2-.373-1.72s-.533-.973-.933-1.347-.88-.667-1.44-.88-1.173-.307-1.853-.307c-.867 0-1.627.147-2.267.453s-1.173.707-1.6 1.227-.747 1.12-.947 1.813-.32 1.413-.32 2.187v.36c0 .773.107 1.493.307 2.187s.52 1.293.947 1.8.96.92 1.6 1.213 1.4.453 2.267.453c.627 0 1.213-.107 1.76-.307s1.027-.48 1.44-.84.747-.773.987-1.253.387-.987.4-1.533h-2.387c-.013.28-.08.533-.2.773s-.28.44-.48.613-.427.307-.693.4c-.253.093-.52.12-.8.133-.48-.013-.88-.107-1.187-.307-.333-.213-.6-.493-.787-.827s-.333-.733-.4-1.173-.107-.893-.107-1.333v-.36c0-.467.04-.907.107-1.347zM16 2.667C8.64 2.667 2.667 8.64 2.667 16S8.64 29.333 16 29.333 29.333 23.36 29.333 16 23.36 2.667 16 2.667zm0 24C10.12 26.667 5.333 21.88 5.333 16S10.12 5.333 16 5.333 26.667 10.12 26.667 16 21.88 26.667 16 26.667z"/></symbol>
    <symbol id="heart_icon" viewBox="0 0 32 32"><path fill="var(--color1, #ff6b08)" d="M16 30.583l-2.24-2.24C5.44 20.983 0 16.023 0 9.943c0-4.96 3.84-8.8 8.8-8.8 2.72 0 5.44 1.28 7.2 3.36 1.76-2.08 4.48-3.36 7.2-3.36 4.96 0 8.8 3.84 8.8 8.8 0 6.08-5.44 11.04-13.76 18.4L16 30.583z"/></symbol>
    <symbol id="logo_icon" viewBox="0 0 32 32"><path fill="none" stroke="var(--color2, #818181)" stroke-linejoin="round" stroke-linecap="round" stroke-width="2.667" d="M26.427 2.667H5.574a2.907 2.907 0 00-2.907 2.907v20.853a2.907 2.907 0 002.907 2.907v0h20.853a2.907 2.907 0 002.907-2.907v0V5.574a2.907 2.907 0 00-2.907-2.907v0zm-17.094 0v26.667M22.667 2.667v26.667M2.667 16h26.667M2.667 9.333h6.667M2.667 22.667h6.667m13.333 0h6.667M22.667 9.333h6.667"/></symbol>
    <symbol id="search_icon" viewBox="0 0 32 32"><path fill="none" stroke="var(--color3, #fff)" stroke-linejoin="round" stroke-linecap="round" stroke-width="2.667" d="M14.667 25.333c5.891 0 10.667-4.776 10.667-10.667S20.558 3.999 14.667 3.999v0C8.776 3.999 4 8.775 4 14.666s4.776 10.667 10.667 10.667v0zM28 28l-5.8-5.8"/></symbol>
    <symbol id="close_icon" viewBox="0 0 32 32"><path d="M32 3.223L28.777 0 16 12.777 3.223 0 0 3.223 12.777 16 0 28.777 3.223 32 16 19.223 28.777 32 32 28.777 19.223 16 32 3.223z"/></symbol>
    <symbol id="moon" viewBox="0 0 32 32"><path fill="currentColor" d="M17.701 32a15.97 15.97 0 0012.429-5.925c.442-.544-.04-1.339-.723-1.209-7.763 1.478-14.891-4.474-14.891-12.31 0-4.514 2.416-8.665 6.344-10.9.605-.345.453-1.262-.235-1.389-.879-.17-1.89-.267-2.923-.268-8.832 0-16 7.157-16 16 0 8.832 7.157 16 16 16z"/></symbol>
    <symbol id="sun" viewBox="0 0 32 32"><path fill="currentColor" d="M16 10c-3.306 0-6 2.694-6 6s2.694 6 6 6 6-2.694 6-6-2.694-6-6-6zm15.4 5.031l-5.919-2.956L27.575 5.8c.281-.85-.525-1.656-1.369-1.369l-6.275 2.094L16.969.6c-.4-.8-1.537-.8-1.938 0l-2.956 5.919-6.281-2.094c-.85-.281-1.656.525-1.369 1.369l2.094 6.275L.6 15.032c-.8.4-.8 1.538 0 1.938l5.919 2.956-2.094 6.281c-.281.85.525 1.656 1.369 1.369l6.275-2.094 2.956 5.919c.4.8 1.538.8 1.938 0l2.956-5.919 6.275 2.094c.85.281 1.656-.525 1.369-1.369l-2.094-6.275 5.919-2.956c.813-.406.813-1.544.012-1.944zm-9.744 6.625c-3.119 3.119-8.194 3.119-11.313 0s-3.119-8.194 0-11.313c3.119-3.119 8.194-3.119 11.313 0s3.119 8.194 0 11.313z"/></symbol>
    <symbol id="icon-arrow-up-circle" viewBox="0 0 32 32"><path d="M2 16c0 7.732 6.268 14 14 14s14-6.268 14-14v0c0-7.732-6.268-14-14-14s-14 6.268-14 14v0zM32 16c0 8.837-7.163 16-16 16s-16-7.163-16-16v0c0-8.837 7.163-16 16-16s16 7.163 16 16v0zM17 23c0 0.552-0.448 1-1 1s-1-0.448-1-1v0-11.586l-4.292 4.294c-0.181 0.181-0.431 0.293-0.708 0.293-0.553 0-1.001-0.448-1.001-1.001 0-0.277 0.112-0.527 0.293-0.708v0l6-6c0.181-0.181 0.431-0.294 0.708-0.294s0.527 0.112 0.708 0.294l6 6c0.181 0.181 0.293 0.431 0.293 0.708 0 0.553-0.448 1.001-1.001 1.001-0.276 0-0.527-0.112-0.708-0.293v0l-4.292-4.294v11.586z"></path></symbol>
    <symbol id="icon-arrow-up-circle-fill" viewBox="0 0 32 32"><path d="M32 16c0-8.837-7.163-16-16-16s-16 7.163-16 16v0c0 8.837 7.163 16 16 16s16-7.163 16-16v0zM17 23c0 0.552-0.448 1-1 1s-1-0.448-1-1v0-11.586l-4.292 4.294c-0.181 0.181-0.431 0.293-0.708 0.293-0.553 0-1.001-0.448-1.001-1.001 0-0.277 0.112-0.527 0.293-0.708v0l6-6c0.181-0.181 0.431-0.294 0.708-0.294s0.527 0.112 0.708 0.294l6 6c0.181 0.181 0.293 0.431 0.293 0.708 0 0.553-0.448 1.001-1.001 1.001-0.276 0-0.527-0.112-0.708-0.293v0l-4.292-4.294v11.586z"></path></symbol>
    <symbol id="icon-arrow-up" viewBox="0 0 32 32"><path fill="#515151" style="fill: var(--color1, #515151)" d="M18.221 7.206l9.585 9.585c0.407 0.409 0.659 0.974 0.659 1.598s-0.252 1.188-0.659 1.598l0-0-0.8 0.801c-0.41 0.407-0.974 0.658-1.597 0.658s-1.187-0.252-1.597-0.659l-7.315-7.315-7.315 7.315c-0.41 0.407-0.974 0.658-1.597 0.658s-1.187-0.252-1.597-0.659l0 0-0.8-0.801c-0.407-0.409-0.659-0.974-0.659-1.598s0.252-1.188 0.659-1.598l9.587-9.585c0.405-0.403 0.963-0.652 1.579-0.652 0.050 0 0.101 0.002 0.15 0.005l-0.007-0c0.042-0.003 0.091-0.004 0.141-0.004 0.617 0 1.176 0.249 1.582 0.652l-0-0z"></path></symbol>
  </defs>
</svg>