<svg aria-hidden="true" style="position:absolute;width:0;height:0" xmlns="http://www.w3.org/2000/svg" overflow="hidden">
  <defs>
    <symbol id="copyright_icon" viewBox="0 0 32 32"><path fill="#545454" d="M13.44 14.48c.067-.44.213-.827.4-1.16s.453-.613.787-.827c.32-.2.72-.293 1.213-.307.307.013.587.067.84.173.267.12.507.28.693.48s.333.44.453.707.173.56.187.853H20.4c-.027-.627-.147-1.2-.373-1.72s-.533-.973-.933-1.347-.88-.667-1.44-.88-1.173-.307-1.853-.307c-.867 0-1.627.147-2.267.453s-1.173.707-1.6 1.227-.747 1.12-.947 1.813-.32 1.413-.32 2.187v.36c0 .773.107 1.493.307 2.187s.52 1.293.947 1.8.96.92 1.6 1.213 1.4.453 2.267.453c.627 0 1.213-.107 1.76-.307s1.027-.48 1.44-.84.747-.773.987-1.253.387-.987.4-1.533h-2.387c-.013.28-.08.533-.2.773s-.28.44-.48.613-.427.307-.693.4c-.253.093-.52.12-.8.133-.48-.013-.88-.107-1.187-.307-.333-.213-.6-.493-.787-.827s-.333-.733-.4-1.173-.107-.893-.107-1.333v-.36c0-.467.04-.907.107-1.347zM16 2.667C8.64 2.667 2.667 8.64 2.667 16S8.64 29.333 16 29.333 29.333 23.36 29.333 16 23.36 2.667 16 2.667zm0 24C10.12 26.667 5.333 21.88 5.333 16S10.12 5.333 16 5.333 26.667 10.12 26.667 16 21.88 26.667 16 26.667z"/></symbol>
    <symbol id="heart_icon" viewBox="0 0 32 32"><path fill="var(--color1, #ff6b08)" d="M16 30.583l-2.24-2.24C5.44 20.983 0 16.023 0 9.943c0-4.96 3.84-8.8 8.8-8.8 2.72 0 5.44 1.28 7.2 3.36 1.76-2.08 4.48-3.36 7.2-3.36 4.96 0 8.8 3.84 8.8 8.8 0 6.08-5.44 11.04-13.76 18.4L16 30.583z"/></symbol>
    <symbol id="logo_icon" viewBox="0 0 32 32"><path fill="none" stroke="var(--color2, #818181)" stroke-linejoin="round" stroke-linecap="round" stroke-width="2.667" d="M26.427 2.667H5.574a2.907 2.907 0 00-2.907 2.907v20.853a2.907 2.907 0 002.907 2.907v0h20.853a2.907 2.907 0 002.907-2.907v0V5.574a2.907 2.907 0 00-2.907-2.907v0zm-17.094 0v26.667M22.667 2.667v26.667M2.667 16h26.667M2.667 9.333h6.667M2.667 22.667h6.667m13.333 0h6.667M22.667 9.333h6.667"/></symbol>
    <symbol id="search_icon" viewBox="0 0 32 32"><path fill="none" stroke="var(--color3, #fff)" stroke-linejoin="round" stroke-linecap="round" stroke-width="2.667" d="M14.667 25.333c5.891 0 10.667-4.776 10.667-10.667S20.558 3.999 14.667 3.999v0C8.776 3.999 4 8.775 4 14.666s4.776 10.667 10.667 10.667v0zM28 28l-5.8-5.8"/></symbol>
    <symbol id="close_icon" viewBox="0 0 32 32"><path d="M32 3.223L28.777 0 16 12.777 3.223 0 0 3.223 12.777 16 0 28.777 3.223 32 16 19.223 28.777 32 32 28.777 19.223 16 32 3.223z"/></symbol>
    <symbol id="moon" viewBox="0 0 32 32"><path fill="currentColor" d="M17.701 32a15.97 15.97 0 0012.429-5.925c.442-.544-.04-1.339-.723-1.209-7.763 1.478-14.891-4.474-14.891-12.31 0-4.514 2.416-8.665 6.344-10.9.605-.345.453-1.262-.235-1.389-.879-.17-1.89-.267-2.923-.268-8.832 0-16 7.157-16 16 0 8.832 7.157 16 16 16z"/></symbol>
    <symbol id="sun" viewBox="0 0 32 32"><path fill="currentColor" d="M16 10c-3.306 0-6 2.694-6 6s2.694 6 6 6 6-2.694 6-6-2.694-6-6-6zm15.4 5.031l-5.919-2.956L27.575 5.8c.281-.85-.525-1.656-1.369-1.369l-6.275 2.094L16.969.6c-.4-.8-1.537-.8-1.938 0l-2.956 5.919-6.281-2.094c-.85-.281-1.656.525-1.369 1.369l2.094 6.275L.6 15.032c-.8.4-.8 1.538 0 1.938l5.919 2.956-2.094 6.281c-.281.85.525 1.656 1.369 1.369l6.275-2.094 2.956 5.919c.4.8 1.538.8 1.938 0l2.956-5.919 6.275 2.094c.85.281 1.656-.525 1.369-1.369l-2.094-6.275 5.919-2.956c.813-.406.813-1.544.012-1.944zm-9.744 6.625c-3.119 3.119-8.194 3.119-11.313 0s-3.119-8.194 0-11.313c3.119-3.119 8.194-3.119 11.313 0s3.119 8.194 0 11.313z"/></symbol>
    <symbol id="icon-arrow-up-circle" viewBox="0 0 32 32"><path d="M2 16c0 7.732 6.268 14 14 14s14-6.268 14-14v0c0-7.732-6.268-14-14-14s-14 6.268-14 14v0zM32 16c0 8.837-7.163 16-16 16s-16-7.163-16-16v0c0-8.837 7.163-16 16-16s16 7.163 16 16v0zM17 23c0 0.552-0.448 1-1 1s-1-0.448-1-1v0-11.586l-4.292 4.294c-0.181 0.181-0.431 0.293-0.708 0.293-0.553 0-1.001-0.448-1.001-1.001 0-0.277 0.112-0.527 0.293-0.708v0l6-6c0.181-0.181 0.431-0.294 0.708-0.294s0.527 0.112 0.708 0.294l6 6c0.181 0.181 0.293 0.431 0.293 0.708 0 0.553-0.448 1.001-1.001 1.001-0.276 0-0.527-0.112-0.708-0.293v0l-4.292-4.294v11.586z"></path></symbol>
    <symbol id="icon-arrow-up-circle-fill" viewBox="0 0 32 32"><path d="M32 16c0-8.837-7.163-16-16-16s-16 7.163-16 16v0c0 8.837 7.163 16 16 16s16-7.163 16-16v0zM17 23c0 0.552-0.448 1-1 1s-1-0.448-1-1v0-11.586l-4.292 4.294c-0.181 0.181-0.431 0.293-0.708 0.293-0.553 0-1.001-0.448-1.001-1.001 0-0.277 0.112-0.527 0.293-0.708v0l6-6c0.181-0.181 0.431-0.294 0.708-0.294s0.527 0.112 0.708 0.294l6 6c0.181 0.181 0.293 0.431 0.293 0.708 0 0.553-0.448 1.001-1.001 1.001-0.276 0-0.527-0.112-0.708-0.293v0l-4.292-4.294v11.586z"></path></symbol>
    <symbol id="icon-arrow-up" viewBox="0 0 32 32"><path fill="#515151" style="fill: var(--color1, #515151)" d="M18.221 7.206l9.585 9.585c0.407 0.409 0.659 0.974 0.659 1.598s-0.252 1.188-0.659 1.598l0-0-0.8 0.801c-0.41 0.407-0.974 0.658-1.597 0.658s-1.187-0.252-1.597-0.659l-7.315-7.315-7.315 7.315c-0.41 0.407-0.974 0.658-1.597 0.658s-1.187-0.252-1.597-0.659l0 0-0.8-0.801c-0.407-0.409-0.659-0.974-0.659-1.598s0.252-1.188 0.659-1.598l9.587-9.585c0.405-0.403 0.963-0.652 1.579-0.652 0.050 0 0.101 0.002 0.15 0.005l-0.007-0c0.042-0.003 0.091-0.004 0.141-0.004 0.617 0 1.176 0.249 1.582 0.652l-0-0z"></path></symbol>
    <symbol id="icon-linkedin" viewBox="0 0 32 32"><path fill="#515151" d="M31.992 32v-.001H32V20.263c0-5.741-1.236-10.164-7.948-10.164-3.227 0-5.392 1.771-6.276 3.449h-.093v-2.913h-6.364v21.364h6.627V21.42c0-2.785.528-5.479 3.977-5.479 3.399 0 3.449 3.179 3.449 5.657v10.401h6.62zM.528 10.636h6.635V32H.528V10.636zM3.843 0C1.722 0 0 1.721 0 3.843s1.721 3.879 3.843 3.879c2.121 0 3.843-1.757 3.843-3.879A3.846 3.846 0 003.843 0z" /></symbol>
    <symbol id="mail_icon" viewBox="0 0 32 32"><path fill="#515151" d="M26.667 5.333H5.334A2.662 2.662 0 002.682 8l-.014 16c0 1.467 1.2 2.667 2.667 2.667h21.333c1.467 0 2.667-1.2 2.667-2.667V8c0-1.467-1.2-2.667-2.667-2.667zm-.534 5.668l-9.426 5.892a1.343 1.343 0 01-1.421-.004l.006.003L5.866 11A1.133 1.133 0 117.07 9.083l-.004-.003 8.933 5.586 8.933-5.588a1.132 1.132 0 111.204 1.916l-.005.003z"/></symbol>
    <symbol id="git_icon" viewBox="0 0 32 32"><path fill="#515151" d="M17.498 0c-0.676 0-1.254 0.256-1.735 0.77-0.478 0.513-0.716 1.132-0.716 1.856 0 0.7 0.24 1.307 0.717 1.821 0.479 0.513 1.057 0.77 1.735 0.77 0.653 0 1.22-0.256 1.699-0.77 0.444-0.463 0.717-1.093 0.717-1.787 0-0.012-0-0.024-0-0.036l0 0.002c0-0.723-0.239-1.342-0.717-1.856-0.48-0.514-1.047-0.77-1.7-0.77zM27.797 20.134c-1.028 0-1.534-0.782-1.534-2.346v-6.176h3.231v-3.861h-3.235c-0.012-0.509-0.041-1.68-0.061-2.229h-3.773v2.229h-2.085v3.86h2.085v6c0 1.962 0.246 3.398 0.74 4.307 0.654 1.215 1.801 1.821 3.503 1.821 1.214 0 2.283-0.233 3.084-0.7v-3.501c-0.638 0.399-1.23 0.596-1.953 0.596zM15.266 7.807c-1.371 0.535-2.648 0.807-3.745 0.807-0.887-0.528-1.956-0.841-3.098-0.841-0.014 0-0.028 0-0.042 0h0.002c-1.588 0-2.951 0.525-4.096 1.575-1.19 1.121-1.788 2.522-1.788 4.202 0 1.121 0.324 2.17 0.98 3.151 0.583 0.911 1.193 1.495 1.992 1.751v0.070c-0.799 0.327-1.154 1.144-1.154 2.452 0 1.004 0.355 1.751 1.154 2.24v0.071c-2.208 0.721-3.218 2.064-3.218 4.026 0 1.705 0.742 2.952 2.19 3.746 1.143 0.63 2.612 0.946 4.386 0.946 4.318 0 6.482-1.808 6.482-5.428 0-2.265-1.666-3.653-5.005-4.168-0.772-0.116-1.352-0.396-1.75-0.839-0.304-0.305-0.453-0.607-0.453-0.912 0-0.865 0.466-1.366 1.401-1.505 1.422-0.211 2.583-0.869 3.485-1.978 0.897-1.109 1.347-2.411 1.347-3.905 0-0.466-0.141-0.969-0.327-1.505 0.55-0.128 0.947-0.244 1.255-0.353v12.312h4.227v-16.651h-4.227v0.734zM8.769 25.245c1.962 0 2.941 0.596 2.941 1.785 0 1.262-0.898 1.891-2.696 1.891-2.054 0-3.080-0.607-3.080-1.82-0.002-1.236 0.944-1.856 2.834-1.856zM8.524 16.002c-1.47 0-2.206-0.806-2.206-2.416 0-1.728 0.736-2.591 2.206-2.591 0.701 0 1.25 0.269 1.645 0.806 0.327 0.489 0.489 1.073 0.489 1.751 0.001 1.634-0.71 2.451-2.134 2.451z"></path></symbol>
    <symbol id="mobile-phone_icon" viewBox="0 0 32 32"><path d="M8.042 3.528v25.028c0 0.113 0.092 0.205 0.205 0.205 0 0 0 0 0 0h15.336c0 0 0 0 0 0 0.113 0 0.205-0.092 0.205-0.205v-25.028c0-0.113-0.092-0.205-0.205-0.205-0 0-0 0-0 0h-15.336c-0 0-0 0-0 0-0.113 0-0.205 0.092-0.205 0.205v0zM8.453 3.733h14.926v24.618h-14.926v-24.618zM17.096 28.983h-2.212c-0.392 0-0.711 0.319-0.711 0.711v0.442c0 0.392 0.319 0.711 0.711 0.711h2.212c0.392 0 0.711-0.319 0.711-0.711v-0.442c-0.001-0.391-0.319-0.711-0.711-0.711zM17.396 30.136c-0 0.166-0.135 0.3-0.301 0.3-0 0-0 0-0 0h-2.211c-0.166-0-0.3-0.134-0.301-0.3v-0.442c0-0.166 0.135-0.3 0.3-0.3 0 0 0 0 0 0h2.211c0.166 0 0.301 0.134 0.301 0.3v0.442zM14.126 2.059h3.96c0.177-0 0.321-0.144 0.321-0.321v0c-0-0.177-0.144-0.321-0.321-0.321-0 0-0 0-0 0h-3.96c-0.177 0-0.321 0.144-0.321 0.321s0.144 0.321 0.321 0.321zM14.126 1.553h3.96c0.102 0 0.184 0.082 0.184 0.184v0c-0 0.102-0.083 0.184-0.184 0.184h-3.96c-0.102 0-0.184-0.083-0.184-0.184s0.082-0.184 0.184-0.184v0z"></path><path d="M14.47 1.737c0 0.051-0.041 0.092-0.092 0.092s-0.092-0.041-0.092-0.092c0-0.051 0.041-0.092 0.092-0.092s0.092 0.041 0.092 0.092z"></path><path d="M14.739 1.737c0 0.051-0.041 0.092-0.092 0.092s-0.092-0.041-0.092-0.092c0-0.051 0.041-0.092 0.092-0.092s0.092 0.041 0.092 0.092z"></path><path d="M15.008 1.737c0 0.051-0.041 0.092-0.092 0.092s-0.092-0.041-0.092-0.092c0-0.051 0.041-0.092 0.092-0.092s0.092 0.041 0.092 0.092z"></path><path d="M15.276 1.737c0 0.051-0.041 0.092-0.092 0.092s-0.092-0.041-0.092-0.092c0-0.051 0.041-0.092 0.092-0.092s0.092 0.041 0.092 0.092z"></path><path d="M15.545 1.737c0 0.051-0.041 0.092-0.092 0.092s-0.092-0.041-0.092-0.092c0-0.051 0.041-0.092 0.092-0.092s0.092 0.041 0.092 0.092z"></path><path d="M15.814 1.737c0 0.051-0.041 0.092-0.092 0.092s-0.092-0.041-0.092-0.092c0-0.051 0.041-0.092 0.092-0.092s0.092 0.041 0.092 0.092z"></path><path d="M16.082 1.737c0 0.051-0.041 0.092-0.092 0.092s-0.092-0.041-0.092-0.092c0-0.051 0.041-0.092 0.092-0.092s0.092 0.041 0.092 0.092z"></path><path d="M16.35 1.737c0 0.051-0.041 0.092-0.092 0.092s-0.092-0.041-0.092-0.092c0-0.051 0.041-0.092 0.092-0.092s0.092 0.041 0.092 0.092z"></path><path d="M16.527 1.645c0.051 0 0.092 0.041 0.092 0.092s-0.041 0.092-0.092 0.092-0.092-0.041-0.092-0.092v0c0-0.051 0.041-0.092 0.092-0.092zM16.796 1.645c0.001-0 0.002-0 0.003-0 0.051 0 0.092 0.041 0.092 0.092s-0.041 0.092-0.092 0.092c-0.001 0-0.002 0-0.002-0h0c-0.050-0.001-0.090-0.042-0.090-0.092s0.040-0.091 0.089-0.092h0zM17.065 1.645c0.001-0 0.002-0 0.003-0 0.051 0 0.092 0.041 0.092 0.092s-0.041 0.092-0.092 0.092c-0.001 0-0.002 0-0.002-0h0c-0.050-0.001-0.090-0.042-0.090-0.092s0.040-0.091 0.089-0.092h0zM17.333 1.645c0.051 0 0.092 0.041 0.092 0.092s-0.041 0.092-0.092 0.092c-0.001 0-0.002 0-0.004 0-0.051 0-0.092-0.041-0.092-0.092s0.041-0.092 0.092-0.092c0.001 0 0.003 0 0.004 0h-0zM17.601 1.645c0.051 0 0.092 0.041 0.092 0.092s-0.041 0.092-0.092 0.092c-0.051 0-0.092-0.041-0.092-0.092s0.041-0.092 0.092-0.092zM17.871 1.645c0.001-0 0.002-0 0.003-0 0.051 0 0.092 0.041 0.092 0.092s-0.041 0.092-0.092 0.092c-0.001 0-0.002 0-0.002-0h0c-0.050-0.001-0.090-0.042-0.090-0.092s0.040-0.091 0.089-0.092h0zM21.497 1.611c0.123 0 0.223 0.1 0.223 0.223s-0.1 0.223-0.223 0.223c-0 0-0 0-0 0v0c-0.123-0-0.223-0.1-0.223-0.223s0.1-0.223 0.223-0.223c0 0 0 0 0 0v0zM11.784 29.563h-1.064c-0 0-0 0-0 0-0.033 0-0.059 0.027-0.059 0.059 0 0 0 0 0 0v-0 0.549c0 0.033 0.027 0.060 0.060 0.060s0.059-0.027 0.059-0.060v-0.491h0.946v0.491c0 0.033 0.027 0.060 0.059 0.060 0.033-0 0.060-0.027 0.060-0.060 0 0 0 0 0 0v0-0.549c0-0 0-0 0-0 0-0.033-0.027-0.060-0.060-0.060-0 0-0 0-0 0v0z"></path><path d="M11.497 29.794h-0.491c-0.033 0-0.059 0.027-0.059 0.059s0.027 0.059 0.059 0.059v0h0.491c0.033 0 0.059-0.027 0.059-0.059s-0.027-0.059-0.059-0.059v0zM11.497 30.033h-0.491c-0.031 0.002-0.056 0.028-0.056 0.060s0.025 0.058 0.056 0.060h0.491c0.033 0 0.060-0.027 0.060-0.060s-0.027-0.060-0.060-0.060v0zM20.829 29.688h-0.41l0.012-0.029-0.209 0.088 0.209 0.088-0.012-0.029h0.41c0.124 0 0.224 0.098 0.224 0.218s-0.101 0.218-0.224 0.218h-0.402c-0.032 0-0.058 0.026-0.058 0.059 0 0 0 0 0 0.001v-0c0 0.033 0.026 0.059 0.058 0.059h0.402c0.189 0 0.344-0.152 0.344-0.337s-0.154-0.336-0.344-0.336z"></path><path d="M6.658 2.433v27.135c0 1.342 1.091 2.433 2.433 2.433h13.82c1.341 0 2.433-1.091 2.433-2.433v-27.135c0-1.342-1.091-2.433-2.433-2.433h-13.82c-1.342-0.001-2.433 1.091-2.433 2.433zM24.522 2.433v27.135c0 0.889-0.723 1.612-1.611 1.612h-13.821c-0.889 0-1.612-0.723-1.612-1.612v-27.135c0-0.889 0.723-1.612 1.612-1.612h13.82c0.889-0 1.612 0.723 1.612 1.612z"></path></symbol>
    <symbol id="phone_icon" viewBox="0 0 32 32"><path d="M9.386 9.825v20.56c0 0.89 0.725 1.615 1.614 1.615h9.999c0.891 0 1.614-0.724 1.614-1.615v-20.56c0-0.89-0.724-1.614-1.614-1.614h-9.999c-0.889 0-1.614 0.724-1.614 1.614zM10.018 9.825c0-0.542 0.441-0.983 0.983-0.983h9.999c0.543 0 0.983 0.441 0.983 0.983v20.56c0 0.542-0.44 0.983-0.983 0.983h-9.999c-0.542 0-0.983-0.441-0.983-0.983v-20.56h0.001z"></path><path d="M10.8 29.202h10.4c0 0 0 0 0.001 0 0.087 0 0.158-0.071 0.158-0.158v0-18.050c-0-0.087-0.071-0.158-0.158-0.158-0 0-0 0-0 0h-10.4c-0.087 0-0.158 0.071-0.158 0.158v18.050c-0.001 0.087 0.071 0.158 0.158 0.158zM11.528 11.152h8.944c0.315 0 0.571 0.256 0.571 0.571v16.593c0 0.315-0.256 0.571-0.571 0.571h-8.944c-0.315 0-0.571-0.256-0.571-0.571v-16.593c0-0 0-0 0-0 0-0.315 0.255-0.571 0.571-0.571 0 0 0 0 0 0v0zM15.113 9.875h1.775c0.087-0 0.157-0.070 0.157-0.157 0-0 0-0 0-0.001v0c0-0 0-0 0-0 0-0.087-0.070-0.157-0.157-0.157h-1.775c-0.001-0-0.003-0-0.004-0-0.087 0-0.158 0.071-0.158 0.158s0.071 0.158 0.158 0.158c0.002 0 0.003-0 0.005-0h-0zM16.909 29.562h-1.819c-0.373 0-0.677 0.304-0.677 0.678v0.108c0 0.373 0.303 0.678 0.677 0.678h1.819c0.373 0 0.678-0.304 0.678-0.678v-0.108c-0.001-0.373-0.305-0.678-0.678-0.678zM17.271 30.348c0 0 0 0 0 0 0 0.2-0.162 0.361-0.361 0.361h-1.819c-0.2-0-0.361-0.162-0.361-0.361 0-0 0-0 0-0v0-0.108c0-0.2 0.162-0.361 0.361-0.361h1.819c0.2 0 0.361 0.162 0.361 0.361v0 0.108zM15.998 3.78c-1.613 0-3.050 1.025-3.573 2.551-0.012 0.032-0.018 0.070-0.018 0.109 0 0.053 0.012 0.103 0.035 0.147l-0.001-0.002c0.039 0.079 0.106 0.139 0.188 0.168l0.002 0.001c0.171 0.059 0.366-0.037 0.424-0.207 0.431-1.256 1.614-2.1 2.943-2.1 1.216 0 2.328 0.715 2.833 1.82 0.039 0.083 0.082 0.19 0.119 0.3l0.007 0.024c0.044 0.135 0.169 0.231 0.316 0.231 0 0 0.001 0 0.001 0h-0c0.036 0 0.069-0.006 0.104-0.016 0.174-0.057 0.271-0.245 0.214-0.42-0.052-0.161-0.104-0.292-0.163-0.419l0.010 0.024c-0.615-1.343-1.963-2.21-3.44-2.21z"></path><path d="M20.644 5.603c0.052 0.121 0.169 0.204 0.306 0.204v0c0.045 0 0.088-0.009 0.129-0.026 0.083-0.035 0.147-0.1 0.18-0.182 0.016-0.037 0.025-0.081 0.025-0.126 0-0.047-0.010-0.091-0.027-0.131l0.001 0.002c-0.105-0.247-0.207-0.449-0.321-0.645l0.015 0.027c-1.014-1.772-2.913-2.872-4.953-2.872-0.002 0-0.004 0-0.007 0-2.347 0-4.363 1.42-5.236 3.447l-0.014 0.037c-0.070 0.169 0.009 0.365 0.178 0.437 0.166 0.068 0.367-0.014 0.437-0.178 0.783-1.823 2.563-3.076 4.636-3.076 0.002 0 0.004 0 0.005 0h-0c1.803 0 3.478 0.972 4.375 2.537 0.101 0.174 0.191 0.357 0.271 0.545z"></path><path d="M9.213 5.053c0.167 0.070 0.368-0.014 0.437-0.178 1.082-2.557 3.573-4.208 6.348-4.208 2.667 0 5.119 1.561 6.246 3.978 0.025 0.049 0.061 0.127 0.094 0.206l0.011 0.030c0.052 0.121 0.17 0.204 0.308 0.204h0c0.045 0 0.088-0.009 0.13-0.026 0.082-0.034 0.146-0.099 0.178-0.179l0.001-0.002c0.016-0.037 0.025-0.080 0.025-0.125 0-0.047-0.010-0.092-0.028-0.133l0.001 0.002c-0.035-0.087-0.075-0.173-0.114-0.259-1.237-2.65-3.926-4.363-6.852-4.363-3.043 0-5.777 1.812-6.963 4.616-0.071 0.169 0.009 0.365 0.178 0.437z"></path></symbol>
    <symbol id="telephone_icon" viewBox="0 0 32 32"><path d="M21.684 22.587c-0.325-0.323-0.776-0.501-1.271-0.501-0.522 0-1.025 0.204-1.381 0.56l-2.25 2.248-0.607-0.336c-1.337-0.742-3.167-1.758-5.101-3.694-1.941-1.939-2.958-3.774-3.702-5.117l-0.331-0.591 2.252-2.252c0.745-0.747 0.771-1.937 0.056-2.653l-4.161-4.16c-0.324-0.324-0.775-0.502-1.27-0.502-0.522 0-1.024 0.204-1.381 0.561l-1.022 1.028-0.095 0.156c-0.368 0.47-0.68 1.009-0.909 1.59l-0.015 0.044c-0.216 0.569-0.351 1.11-0.413 1.653-0.536 4.459 1.52 8.553 7.099 14.131 6.61 6.609 12.135 7.124 13.671 7.124 0.264 0 0.423-0.015 0.467-0.020 0.568-0.069 1.11-0.206 1.659-0.417 0.591-0.231 1.138-0.54 1.625-0.92l0.233-0.183 0.956-0.938c0.744-0.744 0.768-1.933 0.054-2.647l-4.161-4.164zM25.273 28.883l-0.736 0.728c-0.348 0.335-0.947 0.806-1.823 1.148-0.494 0.191-0.979 0.312-1.479 0.372-0.027 0.003-0.14 0.011-0.322 0.011-1.48 0-6.807-0.498-13.216-6.905-6.31-6.312-7.318-9.973-6.89-13.53 0.056-0.486 0.177-0.969 0.368-1.476 0.348-0.885 0.819-1.484 1.152-1.828l0.725-0.735c0.224-0.224 0.54-0.353 0.867-0.353 0.297 0 0.565 0.104 0.754 0.294l4.162 4.159c0.429 0.431 0.405 1.159-0.057 1.622l-2.65 2.649 0.144 0.244c0.145 0.245 0.298 0.52 0.464 0.82 0.766 1.379 1.813 3.267 3.823 5.277 2.015 2.014 3.895 3.056 5.27 3.818 0.312 0.173 0.583 0.324 0.825 0.468l0.245 0.146 2.649-2.651c0.223-0.222 0.538-0.35 0.866-0.35 0.298 0 0.567 0.104 0.756 0.294l4.16 4.157c0.429 0.434 0.404 1.16-0.055 1.621z"></path><path d="M13.46 14.206l-0.073 0.156 0.169 0.044c1.058 0.271 1.968 0.803 2.689 1.523l-0-0c0.688 0.689 1.204 1.548 1.481 2.51l0.010 0.041 0.029 0.102 0.163 0.005c0.041 0.001 0.083 0.003 0.126 0.006 0.101 0.009 0.2 0.019 0.298 0.031 0.088 0.011 0.176 0.021 0.264 0.029l0.2 0.018-0.046-0.196c-0.309-1.282-0.944-2.387-1.813-3.257l0 0c-0.827-0.825-1.867-1.439-3.030-1.751l-0.047-0.011-0.136-0.036-0.039 0.134c-0.076 0.258-0.159 0.474-0.255 0.682l0.013-0.031zM13.85 10.168l0.013 0.104 0.105 0.021c1.991 0.368 3.786 1.307 5.195 2.715 1.617 1.618 2.604 3.68 2.854 5.968l0.012 0.108 0.315 0.046c0.101 0.008 0.2 0.008 0.3 0.008 0.075-0.002 0.149 0 0.223 0.003l0.164 0.006-0.016-0.164c-0.253-2.573-1.34-4.883-3.142-6.686-1.613-1.613-3.674-2.666-5.96-3.043l-0.197-0.033 0.031 0.197c0.040 0.251 0.075 0.501 0.103 0.75z"></path><path d="M23.046 9.125c-2.678-2.678-6.246-4.272-10.047-4.489l-0.18-0.012 0.030 0.178c0.039 0.24 0.086 0.485 0.133 0.735l0.022 0.107 0.109 0.007c3.489 0.239 6.763 1.724 9.222 4.183 2.42 2.42 3.9 5.657 4.165 9.114l0.011 0.143 0.142-0.009c0.22-0.014 0.383-0.026 0.546-0.041l-0.074 0.005 0.392-0.032-0.012-0.144c-0.283-3.692-1.867-7.152-4.46-9.745z"></path><path d="M31.988 18.446c-0.379-4.719-2.43-9.157-5.767-12.497-3.564-3.563-8.308-5.631-13.357-5.819l-0.14-0.006-0.011 0.139c-0.011 0.16-0.016 0.319-0.022 0.48l-0.017 0.39 0.144 0.006c4.8 0.178 9.306 2.14 12.69 5.524 3.171 3.171 5.117 7.385 5.479 11.869l0.012 0.147 0.148-0.015c0.213-0.022 0.431-0.039 0.649-0.056l0.204-0.016-0.012-0.145z"></path></symbol>
  </defs>
</svg>